<svg xmlns="http://www.w3.org/2000/svg" xmlns:xlink="http://www.w3.org/1999/xlink" width="512" zoomAndPan="magnify" viewBox="0 0 384 383.999986" height="512" preserveAspectRatio="xMidYMid meet" version="1.0"><defs><clipPath id="2398b3c18a"><path d="M 26.28125 132.039062 L 104 132.039062 L 104 167 L 26.28125 167 Z M 26.28125 132.039062 " clip-rule="nonzero"/></clipPath><clipPath id="04e3d7134c"><path d="M 286 146 L 357.78125 146 L 357.78125 220 L 286 220 Z M 286 146 " clip-rule="nonzero"/></clipPath></defs><rect x="-38.4" width="460.8" fill="#ffffff" y="-38.399999" height="460.799983" fill-opacity="1"/><rect x="-38.4" width="460.8" fill="#ffffff" y="-38.399999" height="460.799983" fill-opacity="1"/><rect x="-38.4" width="460.8" fill="#ffffff" y="-38.399999" height="460.799983" fill-opacity="1"/><rect x="-38.4" width="460.8" fill="#ffffff" y="-38.399999" height="460.799983" fill-opacity="1"/><path fill="#23395b" d="M 192 384 C 85.925781 384 0 297.480469 0 192 C 0 86.519531 85.925781 0 192 0 C 298.074219 0 384 85.925781 384 192 C 384 298.074219 297.480469 384 192 384 Z M 192 11.851562 C 92.445312 11.851562 11.851562 92.445312 11.851562 192 C 11.851562 291.554688 92.445312 372.148438 192 372.148438 C 291.554688 372.148438 372.148438 291.554688 372.148438 192 C 372.148438 92.445312 290.964844 11.851562 192 11.851562 Z M 192 11.851562 " fill-opacity="1" fill-rule="nonzero"/><path fill="#5ac1bd" d="M 227.824219 250.988281 L 229.15625 251.320312 L 227.824219 251.988281 Z M 227.824219 250.988281 " fill-opacity="0.9686" fill-rule="nonzero"/><g clip-path="url(#2398b3c18a)"><path fill="#c5cecc" d="M 35.476562 166.078125 C 34.15625 166.03125 32.9375 165.65625 31.816406 164.957031 C 30.664062 164.273438 29.621094 163.453125 28.6875 162.496094 C 27.132812 160.933594 26.144531 159.359375 26.296875 158.992188 C 26.320312 158.933594 26.363281 158.910156 26.425781 158.914062 C 26.460938 158.914062 26.496094 158.921875 26.53125 158.929688 L 26.769531 158.929688 C 29.183594 158.929688 31.847656 158.855469 32.976562 157.933594 C 33.464844 157.546875 33.726562 157.042969 33.753906 156.421875 C 33.867188 154.890625 32.640625 153.0625 32.183594 152.566406 C 31.367188 151.683594 30.71875 150.691406 30.238281 149.585938 C 29.742188 148.460938 29.441406 147.285156 29.335938 146.058594 C 29.222656 144.808594 29.328125 143.574219 29.652344 142.359375 C 29.996094 141.082031 30.570312 139.914062 31.371094 138.863281 C 32.683594 137.300781 34.261719 136.082031 36.097656 135.199219 C 39.035156 133.757812 42.128906 132.835938 45.375 132.429688 C 47.21875 132.191406 49.070312 132.078125 50.929688 132.09375 C 55.519531 132.132812 60.078125 132.53125 64.605469 133.292969 C 73.035156 134.683594 80.949219 137.507812 88.355469 141.773438 C 91.6875 143.6875 94.726562 145.984375 97.480469 148.667969 C 99.910156 150.992188 101.789062 153.699219 103.121094 156.785156 C 100.128906 153.035156 96.566406 149.933594 92.441406 147.484375 C 88.390625 145.09375 84.050781 143.496094 79.417969 142.691406 C 79.378906 142.46875 79.332031 142.253906 79.269531 142.039062 C 78.917969 140.800781 78.226562 139.804688 77.191406 139.039062 C 76.183594 138.292969 75.050781 137.917969 73.796875 137.910156 C 73.15625 137.910156 72.539062 138.015625 71.933594 138.226562 C 71.332031 138.433594 70.78125 138.734375 70.277344 139.128906 C 69.777344 139.523438 69.355469 139.988281 69.007812 140.527344 C 68.664062 141.0625 68.417969 141.640625 68.265625 142.261719 C 66.339844 142.433594 64.441406 142.742188 62.5625 143.195312 C 62.71875 142.648438 62.789062 142.09375 62.777344 141.527344 C 62.761719 140.960938 62.664062 140.410156 62.484375 139.871094 C 62.300781 139.335938 62.042969 138.839844 61.710938 138.378906 C 61.378906 137.921875 60.984375 137.523438 60.527344 137.1875 C 59.539062 136.457031 58.429688 136.085938 57.199219 136.082031 C 56.601562 136.082031 56.019531 136.175781 55.453125 136.363281 C 54.886719 136.550781 54.363281 136.824219 53.882812 137.179688 C 53.402344 137.535156 52.988281 137.957031 52.644531 138.445312 C 52.300781 138.933594 52.042969 139.464844 51.867188 140.039062 C 51.695312 140.609375 51.613281 141.195312 51.628906 141.792969 C 51.644531 142.390625 51.75 142.96875 51.953125 143.535156 C 52.152344 144.097656 52.4375 144.613281 52.804688 145.085938 C 53.171875 145.554688 53.605469 145.957031 54.101562 146.289062 C 53.367188 146.660156 52.628906 147.0625 51.914062 147.480469 C 48.921875 149.242188 46.214844 151.363281 43.785156 153.84375 C 41.355469 156.320312 39.289062 159.074219 37.585938 162.097656 C 36.859375 163.386719 36.207031 164.714844 35.625 166.074219 L 35.582031 166.074219 Z M 40.902344 138.648438 C 40.398438 138.648438 39.898438 138.707031 39.410156 138.820312 C 38.921875 138.9375 38.449219 139.109375 38 139.339844 C 37.550781 139.566406 37.136719 139.84375 36.75 140.171875 C 36.367188 140.496094 36.027344 140.863281 35.730469 141.269531 C 35.433594 141.675781 35.1875 142.113281 34.992188 142.578125 C 34.796875 143.042969 34.660156 143.523438 34.582031 144.019531 C 34.5 144.519531 34.476562 145.019531 34.515625 145.519531 C 34.554688 146.023438 34.648438 146.515625 34.800781 146.996094 C 34.957031 147.476562 35.164062 147.929688 35.421875 148.359375 C 35.683594 148.792969 35.992188 149.1875 36.347656 149.546875 C 36.699219 149.902344 37.089844 150.214844 37.519531 150.480469 C 37.949219 150.746094 38.402344 150.960938 38.878906 151.117188 C 39.355469 151.277344 39.847656 151.378906 40.347656 151.421875 C 40.851562 151.464844 41.351562 151.445312 41.847656 151.371094 C 42.347656 151.296875 42.828125 151.164062 43.296875 150.976562 C 43.761719 150.785156 44.199219 150.542969 44.609375 150.25 C 45.019531 149.957031 45.390625 149.621094 45.722656 149.242188 C 46.050781 148.859375 46.332031 148.449219 46.566406 148 C 46.796875 147.554688 46.976562 147.085938 47.097656 146.597656 C 47.21875 146.109375 47.28125 145.613281 47.289062 145.109375 C 47.292969 144.605469 47.238281 144.105469 47.125 143.613281 C 47.011719 143.125 46.84375 142.652344 46.621094 142.199219 C 46.398438 141.75 46.125 141.332031 45.800781 140.945312 C 45.476562 140.558594 45.113281 140.214844 44.710938 139.914062 C 43.582031 139.070312 42.308594 138.648438 40.902344 138.648438 Z M 40.902344 138.648438 " fill-opacity="1" fill-rule="nonzero"/></g><path fill="#23395b" d="M 158.148438 248.773438 C 152.207031 248.773438 146.535156 247.542969 141.128906 245.078125 C 138.449219 243.851562 135.957031 242.324219 133.648438 240.496094 C 131.339844 238.667969 129.28125 236.585938 127.476562 234.257812 C 126.941406 233.617188 126.5625 232.894531 126.347656 232.085938 C 126.132812 231.277344 126.09375 230.460938 126.238281 229.640625 C 126.386719 228.855469 126.679688 228.132812 127.121094 227.46875 C 127.5625 226.804688 128.113281 226.253906 128.777344 225.8125 C 129.859375 225.019531 131.070312 224.628906 132.410156 224.628906 C 132.828125 224.628906 133.242188 224.671875 133.652344 224.757812 C 134.476562 224.917969 135.246094 225.226562 135.953125 225.683594 C 136.660156 226.140625 137.257812 226.710938 137.75 227.394531 C 140.136719 230.433594 143.085938 232.765625 146.589844 234.390625 C 150.28125 236.066406 154.152344 236.902344 158.203125 236.902344 C 158.378906 236.902344 158.535156 236.902344 158.683594 236.898438 L 158.863281 236.898438 C 162.910156 236.894531 166.6875 235.882812 170.191406 233.863281 C 171.992188 232.800781 173.605469 231.507812 175.035156 229.984375 C 176.460938 228.457031 177.640625 226.757812 178.578125 224.890625 C 179.917969 222.265625 180.800781 219.496094 181.234375 216.585938 C 186.289062 213.136719 190.300781 208.738281 193.265625 203.382812 C 193.679688 202.625 194.074219 201.847656 194.445312 201.0625 L 194.445312 211.296875 C 194.488281 214.59375 194.121094 217.84375 193.351562 221.050781 C 192.582031 224.253906 191.429688 227.316406 189.890625 230.234375 C 188.425781 233.015625 186.617188 235.554688 184.464844 237.851562 C 182.3125 240.144531 179.894531 242.117188 177.214844 243.757812 C 174.476562 245.441406 171.558594 246.695312 168.453125 247.519531 C 165.164062 248.375 161.820312 248.792969 158.421875 248.773438 Z M 129.566406 205.851562 C 128.640625 204.539062 127.8125 203.164062 127.085938 201.730469 C 125.632812 198.917969 124.558594 195.964844 123.867188 192.875 C 123.136719 189.554688 122.777344 186.195312 122.792969 182.792969 C 122.773438 179.355469 123.160156 175.960938 123.949219 172.617188 C 124.695312 169.492188 125.847656 166.53125 127.410156 163.726562 C 127.6875 163.21875 127.980469 162.714844 128.289062 162.222656 C 128.34375 162.59375 128.417969 162.980469 128.5 163.378906 C 128.824219 164.625 129.359375 165.773438 130.101562 166.824219 C 130.84375 167.875 131.75 168.765625 132.8125 169.488281 C 134.320312 170.609375 136.007812 171.203125 137.882812 171.265625 C 136.25 174.933594 135.464844 178.777344 135.539062 182.792969 C 135.449219 187.3125 136.445312 191.578125 138.527344 195.59375 C 138.765625 196.039062 139.019531 196.480469 139.285156 196.910156 C 138.246094 196.910156 137.238281 197.089844 136.261719 197.445312 C 135.285156 197.804688 134.398438 198.316406 133.605469 198.988281 C 132.511719 199.800781 131.621094 200.796875 130.925781 201.96875 C 130.21875 203.171875 129.765625 204.46875 129.566406 205.851562 Z M 129.566406 205.851562 " fill-opacity="1" fill-rule="nonzero"/><path fill="#23395b" d="M 246.207031 219.421875 C 239.707031 219.535156 232.199219 217.792969 226.574219 214.527344 C 223.90625 212.960938 221.488281 211.066406 219.328125 208.851562 C 217.164062 206.632812 215.332031 204.171875 213.832031 201.460938 C 212.265625 198.601562 211.09375 195.589844 210.308594 192.425781 C 209.527344 189.261719 209.164062 186.050781 209.21875 182.789062 C 209.15625 179.480469 209.511719 176.214844 210.28125 173 C 211.050781 169.78125 212.214844 166.710938 213.769531 163.789062 C 215.214844 161.089844 216.996094 158.636719 219.117188 156.429688 C 221.238281 154.222656 223.613281 152.34375 226.25 150.789062 C 229.015625 149.195312 231.945312 148 235.035156 147.207031 C 238.125 146.410156 241.265625 146.042969 244.453125 146.105469 C 249.296875 146.046875 255.375 146.84375 259.78125 148.855469 C 264.191406 150.964844 268.363281 153.402344 270.746094 156.449219 C 271.882812 157.589844 271.566406 160.757812 271.242188 162.335938 C 271.019531 163.148438 270.664062 163.894531 270.171875 164.578125 C 269.679688 165.261719 269.082031 165.832031 268.378906 166.296875 C 267.804688 166.726562 267.164062 167.019531 266.457031 167.171875 C 265.753906 167.320312 265.050781 167.316406 264.347656 167.152344 C 262.804688 166.804688 262.417969 165.816406 260.894531 164.554688 C 256.855469 160.066406 250.488281 157.855469 244.453125 157.980469 C 240.390625 158.121094 236.585938 159.183594 233.035156 161.160156 C 231.308594 162.195312 229.75 163.441406 228.367188 164.90625 C 226.980469 166.367188 225.820312 167.992188 224.886719 169.777344 C 222.84375 173.875 221.867188 178.210938 221.957031 182.789062 C 221.875 187.257812 222.851562 191.480469 224.886719 195.457031 C 225.355469 196.378906 225.890625 197.265625 226.484375 198.109375 C 227.082031 198.957031 227.734375 199.757812 228.441406 200.515625 C 229.148438 201.269531 229.90625 201.972656 230.714844 202.621094 C 231.523438 203.269531 232.371094 203.855469 233.261719 204.386719 C 234.152344 204.914062 235.074219 205.378906 236.027344 205.777344 C 236.984375 206.175781 237.964844 206.503906 238.964844 206.765625 C 239.964844 207.027344 240.980469 207.214844 242.011719 207.335938 C 243.039062 207.453125 244.070312 207.496094 245.105469 207.46875 C 247.835938 207.421875 250.496094 206.957031 253.082031 206.070312 C 255.378906 205.335938 257.453125 204.195312 259.300781 202.648438 C 260.589844 201.617188 262.054688 201.046875 263.699219 200.933594 C 264.410156 200.859375 265.101562 200.929688 265.78125 201.148438 C 266.460938 201.367188 267.066406 201.710938 267.601562 202.1875 C 268.269531 202.6875 268.820312 203.300781 269.25 204.019531 C 269.675781 204.738281 269.949219 205.515625 270.070312 206.34375 C 270.238281 207.898438 270.234375 210.296875 269.085938 211.355469 C 262.617188 217.445312 254.316406 219.566406 246.207031 219.421875 Z M 246.207031 219.421875 " fill-opacity="1" fill-rule="nonzero"/><path fill="#bec5d0" d="M 157.390625 219.421875 C 163.890625 219.535156 171.402344 217.792969 177.023438 214.527344 C 179.695312 212.960938 182.109375 211.066406 184.273438 208.851562 C 186.433594 206.632812 188.265625 204.171875 189.765625 201.460938 C 191.332031 198.601562 192.507812 195.589844 193.289062 192.425781 C 194.074219 189.261719 194.4375 186.050781 194.382812 182.789062 C 194.445312 179.480469 194.089844 176.214844 193.320312 173 C 192.546875 169.78125 191.386719 166.710938 189.832031 163.789062 C 188.386719 161.089844 186.601562 158.636719 184.480469 156.429688 C 182.363281 154.222656 179.984375 152.34375 177.347656 150.789062 C 174.582031 149.195312 171.652344 148 168.5625 147.207031 C 165.472656 146.410156 162.332031 146.042969 159.140625 146.105469 C 154.300781 146.046875 148.21875 146.84375 143.8125 148.855469 C 139.402344 150.964844 135.230469 153.402344 132.847656 156.449219 C 131.710938 157.589844 132.03125 160.757812 132.355469 162.335938 C 132.574219 163.148438 132.929688 163.894531 133.421875 164.578125 C 133.914062 165.261719 134.511719 165.832031 135.214844 166.296875 C 135.789062 166.726562 136.429688 167.019531 137.136719 167.171875 C 137.839844 167.320312 138.542969 167.316406 139.246094 167.152344 C 140.792969 166.804688 141.175781 165.816406 142.699219 164.554688 C 146.738281 160.066406 153.109375 157.855469 159.140625 157.980469 C 163.203125 158.121094 167.011719 159.183594 170.5625 161.160156 C 172.289062 162.195312 173.847656 163.441406 175.230469 164.90625 C 176.617188 166.367188 177.777344 167.992188 178.710938 169.777344 C 180.753906 173.875 181.730469 178.210938 181.640625 182.789062 C 181.722656 187.257812 180.746094 191.480469 178.710938 195.457031 C 178.242188 196.378906 177.707031 197.265625 177.113281 198.109375 C 176.515625 198.957031 175.863281 199.757812 175.15625 200.515625 C 174.449219 201.269531 173.691406 201.972656 172.882812 202.621094 C 172.074219 203.269531 171.226562 203.855469 170.335938 204.386719 C 169.445312 204.914062 168.523438 205.378906 167.570312 205.777344 C 166.613281 206.175781 165.636719 206.503906 164.632812 206.765625 C 163.632812 207.027344 162.617188 207.214844 161.589844 207.335938 C 160.558594 207.453125 159.527344 207.496094 158.492188 207.46875 C 155.761719 207.421875 153.101562 206.957031 150.519531 206.070312 C 148.21875 205.335938 146.148438 204.195312 144.296875 202.648438 C 143.007812 201.617188 141.542969 201.046875 139.898438 200.933594 C 139.1875 200.859375 138.496094 200.929688 137.816406 201.148438 C 137.136719 201.367188 136.53125 201.710938 135.996094 202.1875 C 135.328125 202.6875 134.777344 203.300781 134.347656 204.019531 C 133.921875 204.738281 133.648438 205.515625 133.527344 206.34375 C 133.359375 207.898438 133.363281 210.296875 134.511719 211.355469 C 140.980469 217.445312 149.28125 219.566406 157.390625 219.421875 Z M 157.390625 219.421875 " fill-opacity="1" fill-rule="nonzero"/><path fill="#23395b" d="M 69.609375 219.347656 C 69.460938 219.347656 69.3125 219.347656 69.167969 219.347656 C 66.230469 219.347656 63.347656 218.9375 60.527344 218.121094 C 57.707031 217.300781 55.054688 216.101562 52.574219 214.527344 C 50.050781 212.910156 47.78125 210.996094 45.761719 208.78125 C 43.746094 206.566406 42.050781 204.128906 40.675781 201.464844 C 39.191406 198.582031 38.078125 195.558594 37.339844 192.398438 C 36.605469 189.238281 36.261719 186.035156 36.316406 182.792969 C 36.269531 179.515625 36.644531 176.289062 37.449219 173.109375 C 38.253906 169.929688 39.460938 166.914062 41.0625 164.054688 C 41.824219 162.699219 42.667969 161.398438 43.601562 160.15625 C 44.53125 158.914062 45.542969 157.738281 46.632812 156.628906 C 47.71875 155.519531 48.875 154.484375 50.101562 153.53125 C 51.324219 152.574219 52.609375 151.703125 53.949219 150.917969 C 55.289062 150.132812 56.675781 149.441406 58.105469 148.839844 C 59.539062 148.238281 61.003906 147.734375 62.503906 147.328125 C 64.003906 146.921875 65.523438 146.617188 67.0625 146.410156 C 68.601562 146.207031 70.148438 146.105469 71.703125 146.105469 C 71.871094 146.105469 72.042969 146.105469 72.210938 146.105469 C 72.375 146.105469 72.566406 146.101562 72.742188 146.101562 C 75.847656 146.101562 78.902344 146.511719 81.898438 147.328125 C 84.898438 148.148438 87.734375 149.347656 90.414062 150.925781 C 93.085938 152.515625 95.507812 154.425781 97.679688 156.652344 C 99.847656 158.875 101.699219 161.34375 103.222656 164.054688 C 104.824219 166.914062 106.03125 169.933594 106.835938 173.109375 C 107.640625 176.289062 108.019531 179.515625 107.96875 182.792969 L 107.96875 212.21875 C 107.996094 213.117188 107.847656 213.984375 107.519531 214.820312 C 107.191406 215.660156 106.714844 216.398438 106.085938 217.035156 C 105.769531 217.339844 105.425781 217.613281 105.058594 217.851562 C 104.691406 218.089844 104.304688 218.289062 103.894531 218.453125 C 103.488281 218.617188 103.070312 218.742188 102.640625 218.824219 C 102.210938 218.910156 101.777344 218.949219 101.335938 218.949219 C 100.898438 218.949219 100.464844 218.910156 100.035156 218.824219 C 99.605469 218.742188 99.1875 218.617188 98.777344 218.453125 C 98.371094 218.289062 97.984375 218.089844 97.617188 217.851562 C 97.25 217.613281 96.90625 217.339844 96.589844 217.035156 C 95.960938 216.398438 95.484375 215.660156 95.15625 214.820312 C 94.828125 213.984375 94.679688 213.117188 94.707031 212.21875 L 94.707031 207.328125 C 92.402344 210.160156 89.714844 212.558594 86.644531 214.527344 C 84.164062 216.105469 81.511719 217.300781 78.691406 218.121094 C 75.867188 218.941406 72.988281 219.351562 70.050781 219.347656 C 69.902344 219.347656 69.753906 219.347656 69.609375 219.347656 Z M 72.210938 207.46875 C 72.335938 207.46875 72.453125 207.472656 72.570312 207.472656 C 74.597656 207.472656 76.582031 207.199219 78.53125 206.648438 C 80.480469 206.097656 82.316406 205.296875 84.042969 204.238281 C 87.578125 202.035156 90.308594 199.089844 92.234375 195.394531 C 94.292969 191.449219 95.289062 187.246094 95.226562 182.792969 C 95.300781 178.296875 94.304688 174.054688 92.234375 170.058594 C 90.308594 166.367188 87.578125 163.417969 84.042969 161.21875 C 82.316406 160.160156 80.480469 159.355469 78.53125 158.804688 C 76.582031 158.257812 74.597656 157.980469 72.570312 157.980469 C 72.453125 157.980469 72.328125 157.980469 72.210938 157.980469 L 71.933594 157.980469 C 69.90625 157.980469 67.917969 158.257812 65.964844 158.804688 C 64.011719 159.355469 62.171875 160.160156 60.441406 161.21875 C 56.867188 163.410156 54.09375 166.359375 52.117188 170.058594 C 50.003906 174.039062 48.984375 178.285156 49.0625 182.792969 C 48.996094 187.257812 50.015625 191.457031 52.117188 195.394531 C 54.09375 199.09375 56.867188 202.042969 60.441406 204.234375 C 62.171875 205.292969 64.011719 206.097656 65.964844 206.648438 C 67.917969 207.195312 69.90625 207.472656 71.9375 207.472656 Z M 72.210938 207.46875 Z M 72.210938 207.46875 " fill-opacity="1" fill-rule="nonzero"/><path fill="#f01212" d="M 77.289062 142.390625 C 75.789062 142.203125 74.285156 142.109375 72.773438 142.109375 C 72.574219 142.109375 72.386719 142.109375 72.210938 142.113281 C 72.039062 142.117188 71.859375 142.109375 71.679688 142.109375 C 71.257812 142.109375 70.828125 142.117188 70.40625 142.132812 C 70.550781 141.792969 70.746094 141.480469 70.992188 141.195312 C 71.234375 140.914062 71.511719 140.675781 71.824219 140.476562 C 72.140625 140.277344 72.476562 140.128906 72.835938 140.035156 C 73.195312 139.9375 73.5625 139.898438 73.933594 139.910156 C 74.304688 139.925781 74.667969 139.992188 75.015625 140.117188 C 75.367188 140.238281 75.695312 140.410156 75.992188 140.632812 C 76.292969 140.851562 76.550781 141.113281 76.773438 141.414062 C 76.992188 141.714844 77.164062 142.039062 77.285156 142.390625 Z M 77.289062 142.390625 " fill-opacity="1" fill-rule="nonzero"/><path fill="#3dce3d" d="M 56.484375 145.167969 C 56.230469 145.117188 55.984375 145.035156 55.75 144.929688 C 55.511719 144.824219 55.289062 144.695312 55.082031 144.542969 C 54.871094 144.386719 54.683594 144.214844 54.511719 144.019531 C 54.339844 143.824219 54.191406 143.609375 54.066406 143.382812 C 53.941406 143.15625 53.84375 142.917969 53.769531 142.667969 C 53.699219 142.421875 53.652344 142.167969 53.632812 141.90625 C 53.617188 141.648438 53.628906 141.390625 53.664062 141.132812 C 53.703125 140.878906 53.769531 140.628906 53.859375 140.386719 C 53.953125 140.144531 54.070312 139.914062 54.214844 139.695312 C 54.355469 139.480469 54.519531 139.28125 54.707031 139.101562 C 54.890625 138.917969 55.09375 138.757812 55.3125 138.621094 C 55.535156 138.484375 55.765625 138.375 56.011719 138.285156 C 56.253906 138.199219 56.507812 138.140625 56.765625 138.109375 C 57.019531 138.078125 57.277344 138.074219 57.535156 138.097656 C 57.796875 138.121094 58.046875 138.171875 58.292969 138.253906 C 58.542969 138.332031 58.777344 138.4375 59 138.566406 C 59.226562 138.699219 59.433594 138.851562 59.625 139.027344 C 59.816406 139.203125 59.984375 139.394531 60.132812 139.609375 C 60.28125 139.820312 60.40625 140.046875 60.507812 140.285156 C 60.605469 140.527344 60.679688 140.773438 60.726562 141.027344 C 60.769531 141.285156 60.789062 141.539062 60.777344 141.800781 C 60.769531 142.058594 60.730469 142.316406 60.664062 142.566406 C 60.601562 142.816406 60.507812 143.058594 60.390625 143.289062 C 60.273438 143.519531 60.128906 143.734375 59.964844 143.9375 C 58.789062 144.285156 57.617188 144.703125 56.484375 145.167969 Z M 56.484375 145.167969 " fill-opacity="1" fill-rule="nonzero"/><path fill="#0f0fc7" d="M 39.691406 140.816406 C 39.96875 140.734375 40.253906 140.683594 40.539062 140.660156 C 40.828125 140.636719 41.113281 140.640625 41.398438 140.671875 C 41.6875 140.707031 41.964844 140.765625 42.242188 140.855469 C 42.515625 140.941406 42.777344 141.054688 43.03125 141.195312 C 43.28125 141.335938 43.519531 141.5 43.738281 141.683594 C 43.957031 141.871094 44.15625 142.078125 44.335938 142.300781 C 44.515625 142.527344 44.671875 142.769531 44.804688 143.023438 C 44.9375 143.28125 45.042969 143.546875 45.121094 143.824219 C 45.199219 144.101562 45.253906 144.382812 45.277344 144.671875 C 45.300781 144.960938 45.296875 145.246094 45.261719 145.53125 C 45.230469 145.820312 45.171875 146.097656 45.082031 146.375 C 44.996094 146.648438 44.882812 146.910156 44.742188 147.164062 C 44.601562 147.417969 44.4375 147.652344 44.253906 147.871094 C 44.066406 148.09375 43.859375 148.292969 43.636719 148.472656 C 43.410156 148.652344 43.167969 148.808594 42.914062 148.9375 C 42.65625 149.070312 42.390625 149.175781 42.113281 149.257812 C 41.835938 149.335938 41.554688 149.386719 41.265625 149.410156 C 40.980469 149.433594 40.691406 149.429688 40.40625 149.398438 C 40.121094 149.367188 39.839844 149.304688 39.566406 149.21875 C 39.289062 149.128906 39.027344 149.015625 38.773438 148.875 C 38.523438 148.734375 38.285156 148.574219 38.066406 148.386719 C 37.847656 148.199219 37.648438 147.996094 37.46875 147.769531 C 37.289062 147.542969 37.132812 147.300781 37 147.046875 C 36.871094 146.789062 36.761719 146.523438 36.683594 146.246094 C 36.605469 145.96875 36.554688 145.6875 36.527344 145.398438 C 36.503906 145.113281 36.507812 144.824219 36.542969 144.539062 C 36.574219 144.253906 36.636719 143.972656 36.722656 143.695312 C 36.8125 143.421875 36.925781 143.160156 37.0625 142.90625 C 37.203125 142.65625 37.367188 142.417969 37.554688 142.199219 C 37.738281 141.980469 37.945312 141.777344 38.171875 141.597656 C 38.394531 141.417969 38.636719 141.265625 38.894531 141.132812 C 39.148438 141 39.417969 140.894531 39.691406 140.816406 Z M 39.691406 140.816406 " fill-opacity="1" fill-rule="nonzero"/><g clip-path="url(#04e3d7134c)"><path fill="#bec5d0" d="M 324.484375 219.347656 C 324.339844 219.347656 324.191406 219.347656 324.042969 219.347656 C 321.105469 219.351562 318.226562 218.941406 315.402344 218.121094 C 312.582031 217.300781 309.929688 216.105469 307.449219 214.527344 C 304.378906 212.558594 301.691406 210.160156 299.386719 207.328125 L 299.386719 212.21875 C 299.414062 213.117188 299.265625 213.984375 298.9375 214.820312 C 298.609375 215.65625 298.132812 216.394531 297.503906 217.035156 C 296.878906 217.671875 296.15625 218.15625 295.328125 218.488281 C 294.503906 218.820312 293.644531 218.976562 292.757812 218.949219 C 291.867188 218.976562 291.007812 218.820312 290.183594 218.488281 C 289.355469 218.15625 288.632812 217.671875 288.007812 217.035156 C 287.378906 216.394531 286.902344 215.65625 286.574219 214.820312 C 286.246094 213.984375 286.097656 213.117188 286.125 212.21875 L 286.125 182.792969 C 286.074219 179.515625 286.453125 176.289062 287.257812 173.109375 C 288.0625 169.933594 289.265625 166.914062 290.871094 164.054688 C 292.394531 161.34375 294.242188 158.875 296.414062 156.648438 C 298.585938 154.421875 301.007812 152.515625 303.679688 150.921875 C 306.355469 149.347656 309.195312 148.148438 312.191406 147.332031 C 315.191406 146.511719 318.242188 146.105469 321.351562 146.101562 C 321.527344 146.101562 321.707031 146.101562 321.882812 146.105469 C 322.058594 146.109375 322.222656 146.101562 322.390625 146.101562 C 323.945312 146.101562 325.488281 146.203125 327.03125 146.410156 C 328.570312 146.613281 330.089844 146.917969 331.589844 147.328125 C 333.085938 147.734375 334.554688 148.238281 335.984375 148.835938 C 337.417969 149.4375 338.804688 150.132812 340.144531 150.917969 C 341.484375 151.703125 342.769531 152.574219 343.992188 153.527344 C 345.21875 154.484375 346.375 155.515625 347.460938 156.625 C 348.550781 157.734375 349.558594 158.910156 350.492188 160.15625 C 351.425781 161.398438 352.269531 162.695312 353.027344 164.054688 C 354.632812 166.910156 355.835938 169.929688 356.644531 173.109375 C 357.449219 176.285156 357.824219 179.511719 357.773438 182.792969 C 357.828125 186.035156 357.488281 189.238281 356.75 192.398438 C 356.015625 195.558594 354.902344 198.578125 353.417969 201.464844 C 352.042969 204.125 350.347656 206.566406 348.332031 208.78125 C 346.3125 210.996094 344.042969 212.914062 341.519531 214.527344 C 339.039062 216.105469 336.386719 217.300781 333.566406 218.121094 C 330.746094 218.941406 327.863281 219.351562 324.925781 219.347656 C 324.78125 219.347656 324.632812 219.347656 324.484375 219.347656 Z M 310.050781 161.214844 C 306.515625 163.417969 303.785156 166.363281 301.859375 170.058594 C 299.789062 174.050781 298.792969 178.296875 298.867188 182.792969 C 298.800781 187.246094 299.800781 191.445312 301.859375 195.394531 C 303.785156 199.085938 306.515625 202.035156 310.050781 204.234375 C 311.777344 205.292969 313.613281 206.097656 315.5625 206.648438 C 317.511719 207.199219 319.5 207.472656 321.523438 207.472656 C 321.644531 207.472656 321.761719 207.472656 321.882812 207.46875 L 322.15625 207.46875 C 324.183594 207.46875 326.175781 207.195312 328.128906 206.644531 C 330.082031 206.097656 331.921875 205.292969 333.652344 204.234375 C 337.226562 202.039062 340 199.09375 341.976562 195.394531 C 344.078125 191.457031 345.097656 187.257812 345.03125 182.792969 C 345.109375 178.285156 344.089844 174.039062 341.976562 170.058594 C 340 166.359375 337.226562 163.410156 333.652344 161.214844 C 331.921875 160.15625 330.082031 159.355469 328.128906 158.804688 C 326.175781 158.253906 324.183594 157.980469 322.15625 157.980469 L 321.882812 157.980469 C 321.765625 157.980469 321.644531 157.980469 321.523438 157.980469 C 319.5 157.980469 317.511719 158.253906 315.5625 158.804688 C 313.613281 159.355469 311.777344 160.15625 310.050781 161.214844 Z M 321.882812 207.46875 Z M 321.882812 207.46875 " fill-opacity="1" fill-rule="nonzero"/></g></svg>